<?xml version="1.0" encoding="UTF-8"?><svg xmlns="http://www.w3.org/2000/svg" viewBox="0 0 514.78 83.26"><defs><style>.d{fill:#fff;}</style></defs><g id="a"/><g id="b"><g id="c"><g><g><path class="d" d="M231.98,70.44h-12.26c-3.75,0-5.49-1.75-5.49-5.58v-30.46h-8.99v-5.24h8.99v-12.82h6.16v12.82h11.39v5.24h-11.39v30.88l11.6-.08v5.24Z"/><path class="d" d="M255.2,70.44h-12.26c-3.75,0-5.49-1.75-5.49-5.58v-30.46h-8.99v-5.24h8.99v-12.82h6.16v12.82h11.39v5.24h-11.39v30.88l11.6-.08v5.24Z"/><path class="d" d="M259.25,29.15h6.16v10.49c2.91-6.91,9.07-11.32,18.06-11.32,11.57,0,19.39,8.74,19.39,21.56s-7.82,21.39-19.39,21.39c-9.16,0-15.23-4.58-18.06-11.32v23.31h-6.16V29.15Zm23.04,36.87c8.32,0,15.15-5.16,15.15-16.15s-6.83-16.31-15.15-16.31-14.66,5.41-14.66,16.31,6.42,16.15,14.66,16.15Z"/><path class="d" d="M120.06,29.15h6.16v10.49c2.91-6.91,9.07-11.32,18.06-11.32,11.57,0,19.39,8.74,19.39,21.56s-7.82,21.39-19.39,21.39c-9.16,0-15.23-4.58-18.06-11.32v23.31h-6.16V29.15Zm23.04,36.87c8.32,0,15.15-5.16,15.15-16.15s-6.83-16.31-15.15-16.31-14.66,5.41-14.66,16.31,6.42,16.15,14.66,16.15Z"/><path class="d" d="M0,29.15H6.16v10.49c2.91-6.91,9.07-11.32,18.06-11.32,11.57,0,19.39,8.74,19.39,21.56s-7.82,21.39-19.39,21.39c-9.16,0-15.23-4.58-18.06-11.32v23.31H0V29.15Zm23.04,36.87c8.32,0,15.15-5.16,15.15-16.15s-6.83-16.31-15.15-16.31-14.66,5.41-14.66,16.31,6.42,16.15,14.66,16.15Z"/><path class="d" d="M46.86,16.33l6.16-.17v21.97c2.28-5.69,8.07-9.81,17.15-9.81s14.82,5.99,14.82,16.81v25.3h-6.24v-24.8c0-8.57-3.33-12.07-10.65-12.07-9.32,0-15.07,7.82-15.07,18.89v17.98h-6.16V16.33Z"/><path class="d" d="M89.13,70.44V29.15h5.66v41.29"/><path class="d" d="M186.9,28.32c13.15,0,21.56,9.66,21.56,21.47s-8.41,21.47-21.56,21.47-21.64-9.66-21.64-21.47,8.41-21.47,21.64-21.47Zm0,37.71c10.07,0,15.4-7.49,15.4-16.23s-5.33-16.23-15.4-16.23-15.48,7.49-15.48,16.23,5.33,16.23,15.48,16.23Z"/><path class="d" d="M105.23,34.4v30.88l11.69-.08v5.24h-12.36c-3.75,0-5.49-1.75-5.49-5.58v-30.46m0,.78V16.33h6.16v24.09"/><path class="d" d="M324.13,28.32c11.82,0,19.73,7.41,19.73,20.06v2.5h-33.21c.25,8.66,4.66,15.32,13.82,15.32,7.57,0,11.99-4,13.48-10.15h6.08c-1.75,7.32-6.74,15.23-19.39,15.23-13.4,0-19.89-9.99-19.89-22.06,0-13.32,7.74-20.89,19.39-20.89Zm13.65,17.73c-.58-8.07-5.99-12.65-13.73-12.65-7.24,0-12.65,4.66-13.32,12.65h27.05Z"/><path class="d" d="M358.75,47.05l16.81-1.58c-.5-8.07-3.91-11.99-11.74-11.99-5.91,0-10.4,2.75-11.24,10.24h-6.24c1.08-9.07,6.83-15.4,17.48-15.4,12.15,0,17.9,7.91,17.9,18.56v18.31h6.08v5.24h-7.16c-3.08,0-4.74-1.75-4.74-4.74v-2.95c-1.16,3.37-6.83,8.53-16.73,8.53-11.9,0-13.65-7.99-13.65-12.32,0-6.49,3.83-11.07,13.23-11.9Zm1.17,19.06c9.49,0,15.65-6.83,15.65-15.82l-15.82,1.58c-5.41,.5-8.07,2.16-8.07,6.41,0,5.08,3.08,7.82,8.24,7.82Z"/><path class="d" d="M393.38,29.15h22.56v5.24h-21.97v36.04h-6.16V34.65c0-3.75,1.75-5.49,5.58-5.49Z"/><path class="d" d="M433.57,28.32c7.66,0,17.9,4.33,18.98,16.31h-6.24c-1.25-8.32-6.66-11.07-12.73-11.07-10.07,0-14.73,7.49-14.73,16.23s4.66,16.23,14.73,16.23c6.08,0,11.49-2.75,12.73-11.07h6.24c-1.08,11.99-11.32,16.31-18.98,16.31-13.4,0-20.89-9.74-20.89-21.47s7.49-21.47,20.89-21.47Z"/><path class="d" d="M473.52,28.32c11.82,0,19.73,7.41,19.73,20.06v2.5h-33.21c.25,8.66,4.66,15.32,13.82,15.32,7.57,0,11.99-4,13.48-10.15h6.08c-1.75,7.32-6.74,15.23-19.39,15.23-13.4,0-19.89-9.99-19.89-22.06,0-13.32,7.74-20.89,19.39-20.89Zm13.65,17.73c-.58-8.07-5.99-12.65-13.73-12.65-7.24,0-12.65,4.66-13.32,12.65h27.05Z"/><path class="d" d="M89.13,22.74v-6.41h5.66v6.41"/></g><g><rect class="d" x="498.62" y="16.16" width="4.71" height="11.45"/><rect class="d" x="498.62" width="4.71" height="11.45"/><rect class="d" x="503.33" y="11.45" width="11.45" height="4.71"/><rect class="d" x="487.17" y="11.45" width="11.45" height="4.71"/></g></g></g></g></svg>